<svg width="25" height="25" viewBox="0 0 25 25" fill="none" xmlns="http://www.w3.org/2000/svg">
<path d="M21.2346 0.5H3.44996C1.5467 0.5 0 2.00381 0 3.85428V15.3132L7.60823 7.91597L12.3447 12.5211L23.6872 1.49785C23.0608 0.88415 22.1935 0.5 21.2346 0.5Z" fill="#22C96A"/>
<path d="M17.0764 17.1311L12.3399 12.526L1.02637 23.5305C1.64794 24.1301 2.50561 24.5002 3.45001 24.5002H21.2347C23.1379 24.5002 24.6846 22.9964 24.6846 21.146V9.73389L17.0764 17.1311Z" fill="white"/>
<path d="M17.0764 17.1311L24.6846 9.73384V3.85448C24.6846 2.93627 24.304 2.10238 23.6872 1.49805L12.3447 12.526L17.0812 17.1311H17.0764Z" fill="black"/>
<path d="M7.60823 7.92041L0 15.3176V21.1455C0 22.0777 0.395108 22.921 1.02632 23.53L12.3447 12.5255L7.60823 7.92041Z" fill="black"/>
</svg>
